<svg xmlns="http://www.w3.org/2000/svg" width="500" height="100" viewBox="0 0 500 100" fill='#ef4444'>
    <title>NAV</title>
    <path
        d="M19.313,75.963V71.209H14.558V66.455H9.8V61.7H5.05V23.57H9.8V18.816h4.754V14.062h4.755V9.275H47.9v4.787h4.754v4.754h4.787V23.57H62.2v9.541H52.656V28.357H47.9V23.57H43.148V18.816H24.1V23.57H19.313v4.787H14.558V56.914h4.755V61.7H24.1v4.755H43.148V61.7H47.9V56.914h4.754V52.16H62.2V61.7H57.443v4.755H52.656v4.754H47.9v4.754Z" />
    <path
        d="M71.693,75.963V9.275H81.2V33.111h4.754V28.357h16.672v4.754h4.787v4.754h4.754v38.1h-9.541V42.619H97.873V37.865H85.955v4.754H81.2V75.963Z" />
    <path
        d="M131.175,75.963V71.209h-4.754V66.455h-4.754V56.914h4.754V52.16h9.508V47.406h19.082V42.619h-4.787V37.865H135.929v4.754H121.667V37.865h4.754V33.111h4.754V28.357h23.836v4.754h4.754v4.754h4.754v38.1h-9.508V71.209h-4.787v4.754Zm19.049-9.508V61.7h4.787V52.16h-4.787v4.754H133.552v9.541Z" />
    <path d="M174.017,75.963V9.275h9.509V75.963Z" />
    <path d="M193.03,75.963V9.275h9.508V75.963Z" />
    <path
        d="M221.551,75.963V71.209H216.8V66.455h-4.754V37.865H216.8V33.111h4.755V28.357h23.835v4.754h4.754v4.754H254.9V54.537H221.551V61.7h4.754v4.755H240.6V61.7h14.3v4.755H250.14v4.754h-4.754v4.754Zm23.835-28.557V42.619H240.6V37.865H226.305v4.754h-4.754v4.787Z" />
    <path
        d="M264.393,75.963V28.357H273.9v4.754h4.753V28.357h16.672v4.754h4.787v4.754h4.753v38.1h-9.54V42.619h-4.754V37.865H278.655v4.754H273.9V75.963Z" />
    <path
        d="M323.876,95.011V90.225h-4.755V85.47h-4.754V80.717H328.63V85.47h14.3V80.717h4.786V71.209h-4.786v4.754H323.876V71.209h-4.755V66.455h-4.754V37.865h4.754V33.111h4.755V28.357h19.049v4.754h4.786V28.357h9.509V85.47h-4.755v4.755h-4.754v4.786Zm19.049-28.556V61.7h4.786V42.619h-4.786V37.865h-14.3v4.754h-4.754V61.7h4.754v4.755Z" />
    <path
        d="M376.226,75.963V71.209h-4.755V66.455h-4.754V37.865h4.754V33.111h4.755V28.357h23.835v4.754h4.754v4.754h4.755V54.537H376.226V61.7h4.754v4.755h14.295V61.7h14.3v4.755h-4.755v4.754h-4.754v4.754Zm23.835-28.557V42.619h-4.786V37.865H380.98v4.754h-4.754v4.787Z" />
    <path
        d="M426.2,75.963V71.209h-4.754V66.455h-4.754V61.7h14.262v4.755h16.672V56.914H430.954V52.16h-9.508V47.406h-4.754V37.865h4.754V33.111H426.2V28.357h23.835v4.754h4.754v4.754h4.755v4.754H445.249V37.865H428.577v9.541h16.672V52.16h9.54v4.754h4.755v9.541h-4.755v4.754h-4.754v4.754Z" />
</svg>