<svg
xmlns="http://www.w3.org/2000/svg"
width="500"
height="100"
viewBox="0 0 500 100"
fill="#ef4444"
>
<title>NAV</title>
<path d="M14.558,75.963V71.209H9.8V66.455H5.05V56.914h9.508V61.7h4.755v4.755H43.148V61.7H47.9V52.16H43.148V47.406H19.313V42.619H9.8V37.865H5.05V18.816H9.8V14.062h4.754V9.275H47.9v4.787h4.754v4.754h4.787v9.541H47.9V23.57H43.148V18.816H19.313V23.57H14.558v9.541h4.755v4.754H43.148v4.754h9.508v4.787h4.787V66.455H52.656v4.754H47.9v4.754Z" />
<path d="M76.448,75.963V71.209H71.695V66.455H66.94V37.865h4.755V33.111h4.753V28.357h23.835v4.754h4.755v4.754h4.754v9.541h-9.509V42.619H95.5V37.865H81.2v4.754H76.448V61.7H81.2v4.755H95.5V61.7h4.786V56.914h9.509v9.541h-4.754v4.754h-4.755v4.754Z" />
<path d="M128.8,75.963V71.209h-4.754V66.455H119.29V37.865h4.754V33.111H128.8V28.357h23.836v4.754h4.754v4.754h4.754v28.59h-4.754v4.754h-4.754v4.754Zm19.049-9.508V61.7h4.787V42.619h-4.787V37.865h-14.3v4.754H128.8V61.7h4.754v4.755Z" />
<path d="M171.64,75.963V28.357h9.509v4.754H185.9V28.357h11.918v9.508H185.9v4.754h-4.754V75.963Z" />
<path d="M212.077,75.963V71.209h-4.755V66.455h-4.753V37.865h4.753V33.111h4.755V28.357h23.835v4.754h4.754v4.754h4.755V54.537H212.077V61.7h4.754v4.755h14.3V61.7h14.295v4.755h-4.755v4.754h-4.754v4.754Zm23.835-28.557V42.619h-4.786V37.865h-14.3v4.754h-4.754v4.787Z" />
<path d="M254.919,75.963V9.275h9.509V33.111h4.754V28.357h19.081v4.754h4.754v4.754h4.755v28.59h-4.755v4.754h-4.754v4.754H269.182V71.209h-4.754v4.754Zm28.558-9.508V61.7h4.786V42.619h-4.786V37.865H269.182v4.754h-4.754V61.7h4.754v4.755Z" />
<path d="M316.779,75.963V71.209h-4.755V66.455H307.27V37.865h4.754V33.111h4.755V28.357h23.835v4.754h4.753v4.754h4.755v28.59h-4.755v4.754h-4.753v4.754Zm19.048-9.508V61.7h4.787V42.619h-4.787V37.865h-14.3v4.754h-4.753V61.7h4.753v4.755Z" />
<path d="M369.129,75.963V71.209h-4.755V66.455H359.62V56.914h4.754V52.16h9.509V47.406h19.081V42.619h-4.786V37.865h-14.3v4.754H359.62V37.865h4.754V33.111h4.755V28.357h23.835v4.754h4.754v4.754h4.755v38.1h-9.509V71.209h-4.786v4.754Zm19.049-9.508V61.7h4.786V52.16h-4.786v4.754H371.506v9.541Z" />
<path d="M411.971,75.963V28.357h9.509v4.754h4.754V28.357h11.918v9.508H426.234v4.754H421.48V75.963Z" />
<path d="M452.407,75.963V71.209h-4.754V66.455H442.9V37.865h4.754V33.111h4.754V28.357h19.049v4.754h4.786V9.275h9.509V75.963h-9.509V71.209h-4.786v4.754Zm19.049-9.508V61.7h4.786V42.619h-4.786V37.865h-14.3v4.754h-4.754V61.7h4.754v4.755Z" />
</svg>