<?xml version="1.0" encoding="UTF-8"?>
<svg width="355px" height="87px" viewBox="0 0 355 87" version="1.1" xmlns="http://www.w3.org/2000/svg" xmlns:xlink="http://www.w3.org/1999/xlink">
    <title>nav_team</title>
    <g id="Page-1" stroke="none" stroke-width="1" fill="none" fill-rule="evenodd">
        <g id="nav_team" fill="#000000" fill-rule="nonzero">
            <polygon id="Path" points="0.05 66.963 0.05 0.275 14.313 0.275 14.313 9.816 19.1 9.816 19.1 24.111 23.854 24.111 23.854 38.411 28.608 38.411 28.608 52.7 33.395 52.7 33.395 38.406 38.149 38.406 38.149 24.106 42.9 24.106 42.9 9.816 47.654 9.816 47.654 0.275 61.95 0.275 61.95 66.963 52.443 66.963 52.443 24.111 47.656 24.111 47.656 38.411 42.9 38.411 42.9 52.7 38.148 52.7 38.148 66.963 23.848 66.963 23.848 52.7 19.1 52.7 19.1 38.406 14.313 38.406 14.313 24.106 9.558 24.106 9.558 66.963"></polygon>
            <polygon id="Path" points="69.07 86.011 69.07 76.47 83.331 76.47 83.331 66.963 88.118 66.963 88.118 57.455 83.331 57.455 83.331 47.914 78.577 47.914 78.577 38.406 73.823 38.406 73.823 28.865 69.07 28.865 69.07 19.357 78.577 19.357 78.577 28.865 83.331 28.865 83.331 38.406 88.118 38.406 88.118 47.914 97.626 47.914 97.626 38.406 102.413 38.406 102.413 28.865 107.167 28.865 107.167 19.357 116.675 19.357 116.675 28.865 111.921 28.865 111.921 38.406 107.167 38.406 107.167 47.914 102.413 47.914 102.413 57.455 97.626 57.455 97.626 66.963 92.872 66.963 92.872 76.47 88.118 76.47 88.118 81.225 83.331 81.225 83.331 86.011"></polygon>
            <polygon id="Path" points="159.481 66.963 159.481 9.816 140.432 9.816 140.432 0.275 188.038 0.275 188.038 9.816 168.989 9.816 168.989 66.963"></polygon>
            <path d="M192.785,66.963 L192.785,62.209 L188.03,62.209 L188.03,57.455 L183.277,57.455 L183.277,28.865 L188.03,28.865 L188.03,24.111 L192.785,24.111 L192.785,19.357 L216.62,19.357 L216.62,24.111 L221.374,24.111 L221.374,28.865 L226.129,28.865 L226.129,45.537 L192.785,45.537 L192.785,52.7 L197.539,52.7 L197.539,57.455 L211.839,57.455 L211.839,52.7 L226.134,52.7 L226.134,57.455 L221.379,57.455 L221.379,62.209 L216.62,62.209 L216.62,66.963 L192.785,66.963 Z M216.62,38.406 L216.62,33.619 L211.834,33.619 L211.834,28.865 L197.534,28.865 L197.534,33.619 L192.78,33.619 L192.78,38.406 L216.62,38.406 Z" id="Shape"></path>
            <path d="M245.136,66.963 L245.136,62.209 L240.381,62.209 L240.381,57.455 L235.627,57.455 L235.627,47.914 L240.381,47.914 L240.381,43.16 L249.89,43.16 L249.89,38.406 L268.971,38.406 L268.971,33.619 L264.185,33.619 L264.185,28.865 L249.885,28.865 L249.885,33.619 L235.627,33.619 L235.627,28.865 L240.381,28.865 L240.381,24.111 L245.136,24.111 L245.136,19.357 L268.971,19.357 L268.971,24.111 L273.725,24.111 L273.725,28.865 L278.48,28.865 L278.48,66.965 L268.971,66.965 L268.971,62.209 L264.185,62.209 L264.185,66.963 L245.136,66.963 Z M264.185,57.455 L264.185,52.7 L268.971,52.7 L268.971,43.16 L264.185,43.16 L264.185,47.914 L247.513,47.914 L247.513,57.455 L264.185,57.455 Z" id="Shape"></path>
            <polygon id="Path" points="287.978 66.963 287.978 19.357 297.487 19.357 297.487 24.111 302.24 24.111 302.24 19.357 316.54 19.357 316.54 24.111 326.08 24.111 326.08 19.357 345.129 19.357 345.129 24.111 349.884 24.111 349.884 28.865 354.67 28.865 354.67 66.965 345.129 66.965 345.129 33.619 340.37 33.619 340.37 28.865 330.83 28.865 330.83 33.619 326.075 33.619 326.075 66.963 316.535 66.963 316.535 33.619 311.78 33.619 311.78 28.865 302.24 28.865 302.24 33.619 297.487 33.619 297.487 66.963"></polygon>
        </g>
    </g>
</svg>