<svg width="355" height="87" viewBox="0 0 355 87" fill="none" xmlns="http://www.w3.org/2000/svg">
    <path
        d="M0.0500488 66.963V0.274994H14.313V9.81599H19.1V24.111H23.854V38.411H28.608V52.7H33.3951V38.406H38.149V24.106H42.9001V9.81599H47.654V0.274994H61.9501V66.963H52.4431V24.111H47.656V38.411H42.9001V52.7H38.148V66.963H23.848V52.7H19.1V38.406H14.313V24.106H9.55805V66.963H0.0500488Z"
        fill="#EF4444" />
    <path
        d="M69.0701 86.011V76.47H83.3311V66.963H88.1181V57.455H83.3311V47.914H78.5771V38.406H73.8231V28.865H69.0701V19.357H78.5771V28.865H83.3311V38.406H88.1181V47.914H97.6261V38.406H102.413V28.865H107.167V19.357H116.675V28.865H111.921V38.406H107.167V47.914H102.413V57.455H97.6261V66.963H92.8721V76.47H88.1181V81.225H83.3311V86.011H69.0701Z"
        fill="#EF4444" />
    <path d="M159.481 66.963V9.81599H140.432V0.274994H188.038V9.81599H168.989V66.963H159.481Z"
        fill="#EF4444" />
    <path
        d="M192.785 66.963V62.209H188.03V57.455H183.277V28.865H188.03V24.111H192.785V19.357H216.62V24.111H221.374V28.865H226.129V45.537H192.785V52.7H197.539V57.455H211.839V52.7H226.134V57.455H221.379V62.209H216.62V66.963H192.785ZM216.62 38.406V33.619H211.834V28.865H197.534V33.619H192.78V38.406H216.62Z"
        fill="#EF4444" />
    <path
        d="M245.136 66.963V62.209H240.381V57.455H235.627V47.914H240.381V43.16H249.89V38.406H268.971V33.619H264.185V28.865H249.885V33.619H235.627V28.865H240.381V24.111H245.136V19.357H268.971V24.111H273.725V28.865H278.48V66.965H268.971V62.209H264.185V66.963H245.136ZM264.185 57.455V52.7H268.971V43.16H264.185V47.914H247.513V57.455H264.185Z"
        fill="#EF4444" />
    <path
        d="M287.978 66.963V19.357H297.487V24.111H302.24V19.357H316.54V24.111H326.08V19.357H345.129V24.111H349.884V28.865H354.67V66.965H345.129V33.619H340.37V28.865H330.83V33.619H326.075V66.963H316.535V33.619H311.78V28.865H302.24V33.619H297.487V66.963H287.978Z"
        fill="#EF4444" />
</svg>
    