<svg width="334" height="71" viewBox="0 0 334 71" fill="none" xmlns="http://www.w3.org/2000/svg">
    <path d="M19.049 69.688V12.541H0V3H47.606V12.541H28.557V69.688H19.049Z" fill="#EF4444" />
    <path
        d="M48.508 69.606V64.852H43.753V60.098H39V31.508H43.753V26.754H48.508V22H72.343V26.754H77.097V31.508H81.852V48.18H48.508V55.343H53.262V60.098H67.562V55.343H81.857V60.098H77.102V64.852H72.343V69.606H48.508ZM72.343 41.049V36.262H67.557V31.508H53.257V36.262H48.503V41.049H72.343Z"
        fill="#EF4444" />
    <path d="M92 69.606V22H101.509V26.754H106.26V22H118.178V31.508H106.26V36.262H101.506V69.606H92Z"
        fill="#EF4444" />
    <path
        d="M128 69.606V22H137.509V26.754H142.262V22H156.562V26.754H166.102V22H185.151V26.754H189.906V31.508H194.692V69.608H185.151V36.262H180.392V31.508H170.852V36.262H166.097V69.606H156.557V36.262H151.802V31.508H142.262V36.262H137.509V69.606H128Z"
        fill="#EF4444" />
    <path d="M204 27V70.1412H212.997V39.9244L213 31.3081V27H204Z" fill="#EF4444" />
    <path
        d="M223 22V69.606H232.509V36.262H237.262V31.508H246.802V36.262H251.557V69.606H261.097V36.262L261.102 26.754H251.562V22H237.262V26.754H232.509V22H223Z"
        fill="#EF4444" />
    <path
        d="M280.509 69.606V64.852H275.754V60.098H271V50.557H275.754V45.803H285.263V41.049H304.344V36.262H299.558V31.508H285.258V36.262H271V31.508H275.754V26.754H280.509V22H304.344V26.754H309.098V31.508H313.853V69.608H304.344V64.852H299.558V69.606H280.509ZM299.558 60.098V55.343H304.344V45.803H299.558V50.557H282.886V60.098H299.558Z"
        fill="#EF4444" />
    <path d="M324.001 3V26.836L324 36.344V55.425L324.001 64.934V69.688H333.51V3H324.001Z"
        fill="#EF4444" />
    <rect x="204" y="9" width="9" height="9" fill="#EF4444" />
</svg>
    